<svg width="14" height="11" viewBox="0 0 14 11" fill="none" xmlns="http://www.w3.org/2000/svg">
<path d="M9.23942 1.89348H3.23103L3.61603 1.50848C3.95436 1.17015 3.95436 0.61015 3.61603 0.271816C3.2777 -0.0665169 2.71769 -0.0665169 2.37936 0.271816L0.547695 2.10348C0.209362 2.44182 0.209362 3.00182 0.547695 3.34015L2.37936 5.17186C2.55436 5.34686 2.77603 5.42853 2.9977 5.42853C3.21936 5.42853 3.44103 5.34686 3.61603 5.17186C3.95436 4.83353 3.95436 4.27353 3.61603 3.9352L3.3127 3.63182H9.23942C10.7328 3.63182 11.9578 4.8452 11.9578 6.3502C11.9578 7.8552 10.7443 9.06853 9.23942 9.06853H3.49936C3.02103 9.06853 2.62436 9.4652 2.62436 9.94353C2.62436 10.4219 3.02103 10.8185 3.49936 10.8185H9.23942C11.7011 10.8185 13.7078 8.81186 13.7078 6.3502C13.7078 3.88853 11.7011 1.89348 9.23942 1.89348Z" fill="currentColor"/>
</svg>
