<svg width="24" height="24" viewBox="0 0 24 24" fill="none" xmlns="http://www.w3.org/2000/svg">
<path opacity="0.1" d="M16.667 22.4998C18.8669 22.4998 21.1335 22.4998 21.8169 21.8164C22.5003 21.133 22.5003 20.033 22.5003 17.8332V10.8332C22.5003 8.63328 22.5003 7.53334 21.8169 6.84993C21.1335 6.1665 18.8669 6.1665 16.667 6.1665V22.4998Z" fill="currentColor"/>
<path opacity="0.1" d="M7.33333 22.4998V6.1665C5.13344 6.1665 2.86683 6.1665 2.18342 6.84993C1.5 7.53334 1.5 8.63328 1.5 10.8332V17.8332C1.5 20.033 1.5 21.133 2.18342 21.8164C2.86683 22.4998 5.13344 22.4998 7.33333 22.4998Z" fill="currentColor"/>
<path d="M7.33301 22.5V3.83333C7.33301 2.54467 8.37768 1.5 9.66634 1.5H14.333C15.6217 1.5 16.6663 2.54467 16.6663 3.83333V22.5" stroke="currentColor" stroke-width="2" stroke-linejoin="round"/>
<path d="M1.5 10.8332C1.5 8.63328 1.5 7.53334 2.18342 6.84993C2.86683 6.1665 3.96678 6.1665 6.16667 6.1665H7.33333H16.6667H17.8333C20.0332 6.1665 21.1331 6.1665 21.8166 6.84993C22.5 7.53334 22.5 8.63328 22.5 10.8332V17.8332C22.5 20.033 22.5 21.133 21.8166 21.8164C21.1331 22.4998 20.0332 22.4998 17.8333 22.4998H16.6667H7.33333H6.16667C3.96678 22.4998 2.86683 22.4998 2.18342 21.8164C1.5 21.133 1.5 20.033 1.5 17.8332V10.8332Z" stroke="currentColor" stroke-width="2" stroke-linejoin="round"/>
</svg>
