<svg width="84" height="84" viewBox="0 0 84 84" fill="none" xmlns="http://www.w3.org/2000/svg">
<path fill-rule="evenodd" clip-rule="evenodd" d="M12.8333 8.66683C10.5321 8.66683 8.66658 10.5323 8.66658 12.8335V71.1668C8.66658 73.4681 10.5321 75.3335 12.8333 75.3335H41.9999H46.1666C48.4678 75.3335 50.3333 73.4681 50.3333 71.1668V12.8335C50.3333 10.5323 48.4678 8.66683 46.1666 8.66683H12.8333ZM12.8333 83.6668H41.9999H46.1666H71.1666C78.0703 83.6668 83.6666 78.0706 83.6666 71.1668V29.5002C83.6666 22.5966 78.0703 17.0002 71.1666 17.0002H58.6666V12.8335C58.6666 5.92995 53.0703 0.333496 46.1666 0.333496H12.8333C5.92971 0.333496 0.333252 5.92995 0.333252 12.8335V71.1668C0.333252 78.0706 5.92971 83.6668 12.8333 83.6668ZM71.1666 75.3335H57.9553C58.4157 74.0302 58.6666 72.6277 58.6666 71.1668V25.3335H71.1666C73.4678 25.3335 75.3333 27.199 75.3333 29.5002V71.1668C75.3333 73.4681 73.4678 75.3335 71.1666 75.3335ZM21.1666 50.3335H12.8333V58.6668H21.1666V50.3335ZM25.3333 50.3335H33.6666V58.6668H25.3333V50.3335ZM46.1666 50.3335H37.8333V58.6668H46.1666V50.3335ZM62.8332 50.3335H71.1666V58.6668H62.8332V50.3335ZM71.1666 33.6668H62.8332V42.0002H71.1666V33.6668ZM12.8333 33.6668H21.1666V42.0002H12.8333V33.6668ZM33.6666 33.6668H25.3333V42.0002H33.6666V33.6668ZM37.8333 33.6668H46.1666V42.0002H37.8333V33.6668ZM21.1666 17.0002H12.8333V25.3335H21.1666V17.0002ZM25.3333 17.0002H33.6666V25.3335H25.3333V17.0002ZM46.1666 17.0002H37.8333V25.3335H46.1666V17.0002Z" fill="currenColor"/>
</svg>
