<svg width="12" height="12" viewBox="0 0 12 12" fill="none" xmlns="http://www.w3.org/2000/svg">
<path d="M9.12014 5.0399H2.88014C2.74814 5.0399 2.64014 5.1479 2.64014 5.2799V8.8799C2.64014 9.2759 2.96414 9.5999 3.36014 9.5999H8.64014C9.03614 9.5999 9.36014 9.2759 9.36014 8.8799V5.2799C9.36014 5.1479 9.25214 5.0399 9.12014 5.0399ZM4.80014 8.3999C4.80014 8.5319 4.69214 8.6399 4.56014 8.6399H4.08014C3.94814 8.6399 3.84014 8.5319 3.84014 8.3999V7.9199C3.84014 7.7879 3.94814 7.6799 4.08014 7.6799H4.56014C4.69214 7.6799 4.80014 7.7879 4.80014 7.9199V8.3999ZM6.48014 8.3999C6.48014 8.5319 6.37214 8.6399 6.24014 8.6399H5.76014C5.62814 8.6399 5.52014 8.5319 5.52014 8.3999V7.9199C5.52014 7.7879 5.62814 7.6799 5.76014 7.6799H6.24014C6.37214 7.6799 6.48014 7.7879 6.48014 7.9199V8.3999ZM6.48014 6.7199C6.48014 6.8519 6.37214 6.9599 6.24014 6.9599H5.76014C5.62814 6.9599 5.52014 6.8519 5.52014 6.7199V6.2399C5.52014 6.1079 5.62814 5.9999 5.76014 5.9999H6.24014C6.37214 5.9999 6.48014 6.1079 6.48014 6.2399V6.7199ZM8.16014 6.7199C8.16014 6.8519 8.05214 6.9599 7.92014 6.9599H7.44014C7.30814 6.9599 7.20014 6.8519 7.20014 6.7199V6.2399C7.20014 6.1079 7.30814 5.9999 7.44014 5.9999H7.92014C8.05214 5.9999 8.16014 6.1079 8.16014 6.2399V6.7199ZM8.64014 3.1199H8.04014V2.8799C8.04014 2.6159 7.82414 2.3999 7.56014 2.3999C7.29614 2.3999 7.08014 2.6159 7.08014 2.8799V3.1199H4.92014V2.8799C4.92014 2.6159 4.70414 2.3999 4.44014 2.3999C4.17614 2.3999 3.96014 2.6159 3.96014 2.8799V3.1199H3.36014C2.96414 3.1199 2.64014 3.4439 2.64014 3.8399V4.0799C2.64014 4.2119 2.74814 4.3199 2.88014 4.3199H9.12014C9.25214 4.3199 9.36014 4.2119 9.36014 4.0799V3.8399C9.36014 3.4439 9.03614 3.1199 8.64014 3.1199Z" fill="currentColor"/>
</svg>
