<svg width="10" height="10" viewBox="0 0 10 10" fill="none" xmlns="http://www.w3.org/2000/svg">
<path fill-rule="evenodd" clip-rule="evenodd" d="M5 9.375C2.58375 9.375 0.625 7.41563 0.625 5C0.625 2.58437 2.58375 0.625 5 0.625C7.41625 0.625 9.375 2.58437 9.375 5C9.375 7.41563 7.41625 9.375 5 9.375ZM5 0C2.23844 0 0 2.2375 0 5C0 7.7625 2.23844 10 5 10C7.76156 10 10 7.7625 10 5C10 2.2375 7.76156 0 5 0ZM6.78656 3.21251C6.66343 3.09063 6.46437 3.09063 6.34125 3.21251L4.99813 4.55624L3.67437 3.23124C3.55219 3.10936 3.35406 3.10936 3.2325 3.23124C3.11031 3.35311 3.11031 3.55313 3.2325 3.675L4.55626 4.99687L3.22313 6.33125C3.10032 6.45313 3.10032 6.65311 3.22313 6.77811C3.34626 6.89998 3.54562 6.89998 3.66875 6.77811L5.00187 5.44376L6.32563 6.76876C6.44781 6.89064 6.64593 6.89064 6.76781 6.76876C6.88999 6.64689 6.88999 6.44687 6.76781 6.325L5.44374 5.00313L6.78656 3.65936C6.90937 3.53436 6.90937 3.33751 6.78656 3.21251Z" fill="currentColor"/>
</svg>
