<svg width="22" height="24" viewBox="0 0 22 24" fill="none" xmlns="http://www.w3.org/2000/svg">
<path d="M0.5 5.45022C0.5 4.88503 0.902943 4.42684 1.4 4.42684L4.50828 4.42629C5.12586 4.40849 5.67069 3.96197 5.88083 3.30139C5.88636 3.28402 5.89271 3.2626 5.91549 3.18487L6.04942 2.72791C6.13138 2.44773 6.20278 2.20363 6.30271 1.98545C6.69744 1.12351 7.42776 0.524961 8.27172 0.371719C8.48533 0.332927 8.71158 0.333091 8.97128 0.333277H13.0289C13.2887 0.333091 13.5149 0.332927 13.7285 0.371719C14.5724 0.524961 15.3028 1.12351 15.6975 1.98545C15.7974 2.20363 15.8688 2.44773 15.9507 2.72791L16.0847 3.18487C16.1074 3.2626 16.1138 3.28402 16.1193 3.30139C16.3296 3.96197 16.9824 4.40904 17.6 4.42684H20.6C21.097 4.42684 21.5 4.88503 21.5 5.45022C21.5 6.01542 21.097 6.47361 20.6 6.47361H1.4C0.902943 6.47361 0.5 6.01542 0.5 5.45022Z" fill="currentColor"/>
<path fill-rule="evenodd" clip-rule="evenodd" d="M7.99601 11.395C8.47686 11.3444 8.90562 11.7138 8.95369 12.2199L9.53702 18.3603C9.58509 18.8664 9.23427 19.3177 8.75349 19.3684C8.27262 19.419 7.84383 19.0496 7.79575 18.5435L7.21242 12.4031C7.16433 11.897 7.51515 11.4457 7.99601 11.395Z" fill="currentColor"/>
<path fill-rule="evenodd" clip-rule="evenodd" d="M14.0035 11.395C14.4842 11.4457 14.8351 11.897 14.787 12.4031L14.2037 18.5435C14.1556 19.0496 13.7268 19.419 13.2459 19.3684C12.7652 19.3177 12.4143 18.8664 12.4624 18.3603L13.0457 12.2199C13.0938 11.7138 13.5226 11.3444 14.0035 11.395Z" fill="currentColor"/>
<path opacity="0.5" d="M10.5279 23.6668H11.4715C14.718 23.6668 16.3413 23.6668 17.3966 22.6332C18.4521 21.5997 18.56 19.9043 18.776 16.5134L19.0871 11.6275C19.2044 9.78765 19.2629 8.86778 18.7334 8.28484C18.204 7.7019 17.3098 7.7019 15.5217 7.7019H6.47773C4.68949 7.7019 3.79537 7.7019 3.2659 8.28484C2.73643 8.86778 2.79502 9.78765 2.9122 11.6275L3.22336 16.5134C3.43932 19.9043 3.5473 21.5997 4.60271 22.6332C5.65813 23.6668 7.28138 23.6668 10.5279 23.6668Z" fill="currentColor"/>
</svg>
