<svg width="24" height="24" viewBox="0 0 24 24" fill="none" xmlns="http://www.w3.org/2000/svg">
<path d="M12.6464 17.2571C12.4806 17.4384 12.2464 17.5417 12.0007 17.5417C11.755 17.5417 11.5207 17.4384 11.3549 17.2571L6.68822 12.153C6.36213 11.7963 6.38691 11.2428 6.74356 10.9168C7.10023 10.5907 7.65368 10.6154 7.97976 10.9721L11.1257 14.4129V1.5C11.1257 1.01676 11.5174 0.625 12.0007 0.625C12.4839 0.625 12.8757 1.01676 12.8757 1.5V14.4129L16.0216 10.9721C16.3477 10.6154 16.9011 10.5907 17.2578 10.9168C17.6144 11.2428 17.6392 11.7963 17.3131 12.153L12.6464 17.2571Z" fill="#1D2125"/>
<path d="M2.375 15.5C2.375 15.0168 1.98326 14.625 1.5 14.625C1.01676 14.625 0.625001 15.0168 0.625001 15.5V15.5641C0.624977 17.1596 0.624954 18.4456 0.760941 19.4571C0.902131 20.5072 1.20417 21.3913 1.90641 22.0935C2.60865 22.7959 3.49283 23.0979 4.54296 23.2391C5.55442 23.375 6.84046 23.375 8.43599 23.375H15.5641C17.1596 23.375 18.4456 23.375 19.4571 23.2391C20.5072 23.0979 21.3913 22.7959 22.0936 22.0935C22.7959 21.3913 23.0979 20.5072 23.2391 19.4571C23.375 18.4456 23.375 17.1596 23.375 15.5641V15.5C23.375 15.0168 22.9832 14.625 22.5 14.625C22.0168 14.625 21.625 15.0168 21.625 15.5C21.625 17.1746 21.6231 18.3426 21.5047 19.2239C21.3896 20.08 21.1791 20.5332 20.8562 20.8562C20.5332 21.1791 20.08 21.3896 19.2239 21.5047C18.3426 21.6231 17.1746 21.625 15.5 21.625H8.5C6.82536 21.625 5.65738 21.6231 4.77614 21.5047C3.92008 21.3896 3.46673 21.1791 3.14385 20.8562C2.82096 20.5332 2.61043 20.08 2.49534 19.2239C2.37686 18.3426 2.375 17.1746 2.375 15.5Z" fill="#1D2125"/>
</svg>
