<svg width="31" height="31" viewBox="0 0 31 31" fill="none" xmlns="http://www.w3.org/2000/svg">
<path opacity="0.4" d="M20.5744 2.375H8.96602C3.93477 2.375 0.916016 5.37917 0.916016 10.425V22.0187C0.916016 27.0792 3.93477 30.0833 8.96602 30.0833H20.5598C25.6056 30.0833 28.6098 27.0792 28.6098 22.0333V10.425C28.6244 5.37917 25.6056 2.375 20.5744 2.375Z" fill="#1D2125"/>
<path d="M28.652 2.34518C26.0415 -0.279823 23.4895 -0.338156 20.8061 2.34518L19.1582 3.97851C19.0124 4.12434 18.9686 4.32851 19.027 4.51809C20.0478 8.09101 22.9061 10.9493 26.479 11.9702C26.5228 11.9848 26.5957 11.9848 26.6395 11.9848C26.7853 11.9848 26.9311 11.9264 27.0332 11.8243L28.652 10.191C29.979 8.86393 30.6353 7.59518 30.6353 6.29726C30.6353 4.98476 29.979 3.68684 28.652 2.34518Z" fill="#1D2125"/>
<path d="M24.0448 13.1954C23.651 13.0058 23.2719 12.8162 22.9219 12.5975C22.6302 12.4225 22.3385 12.2329 22.0614 12.0288C21.8281 11.8829 21.5656 11.6642 21.3031 11.4454C21.2739 11.4309 21.1864 11.3579 21.0698 11.2413C20.6177 10.8767 20.1364 10.3809 19.6844 9.84128C19.6552 9.81211 19.5677 9.72461 19.4948 9.59336C19.3489 9.43294 19.1302 9.15586 18.9406 8.84961C18.7802 8.64544 18.5906 8.35378 18.4156 8.04753C18.1969 7.68294 18.0073 7.31836 17.8323 6.93919C17.6427 6.53086 17.4969 6.15169 17.3656 5.78711L9.5198 13.6329C9.00938 14.1433 8.51355 15.1058 8.41147 15.8204L7.78438 20.1662C7.65313 21.085 7.90105 21.9454 8.4698 22.5141C8.95105 22.9954 9.6073 23.2433 10.3365 23.2433C10.4969 23.2433 10.6573 23.2287 10.8177 23.2141L15.1489 22.6016C15.8635 22.4996 16.826 22.0183 17.3364 21.4933L25.1823 13.6475C24.8177 13.5308 24.4531 13.3704 24.0448 13.1954Z" fill="#1D2125"/>
</svg>
