<svg width="20" height="24" viewBox="0 0 20 24" fill="none" xmlns="http://www.w3.org/2000/svg">
<path d="M6.49967 10.8333H13.4997M6.49967 6.16667H11.1663M6.49967 15.5H13.4997M1.83301 5.23333V22.5L4.74967 20.1667L7.66634 22.5L9.99968 20.1667L12.333 22.5L15.2497 20.1667L18.1663 22.5V5.23333C18.1663 3.92655 18.1663 3.27315 17.912 2.77402C17.6884 2.33497 17.3314 1.97802 16.8923 1.75432C16.3932 1.5 15.7398 1.5 14.433 1.5H5.56634C4.25956 1.5 3.60615 1.5 3.10703 1.75432C2.66798 1.97802 2.31103 2.33497 2.08733 2.77402C1.83301 3.27315 1.83301 3.92655 1.83301 5.23333Z" stroke="currentColor" stroke-width="2" stroke-linecap="round" stroke-linejoin="round"/>
</svg>
