<svg width="100" height="100" viewBox="0 0 100 100" fill="none" xmlns="http://www.w3.org/2000/svg">
    <g filter="url(#filter0_b_1174_1908)">
        <path fill-rule="evenodd" clip-rule="evenodd"
            d="M20.834 16.6663C18.5328 16.6663 16.6673 18.5318 16.6673 20.833V79.1663C16.6673 81.4676 18.5328 83.333 20.834 83.333H50.0006H54.1673C56.4686 83.333 58.334 81.4676 58.334 79.1663V20.833C58.334 18.5318 56.4686 16.6663 54.1673 16.6663H20.834ZM20.834 91.6663H50.0006H54.1673H79.1673C86.0711 91.6663 91.6673 86.0701 91.6673 79.1663V37.4997C91.6673 30.5961 86.0711 24.9997 79.1673 24.9997H66.6673V20.833C66.6673 13.9295 61.0711 8.33301 54.1673 8.33301H20.834C13.9304 8.33301 8.33398 13.9295 8.33398 20.833V79.1663C8.33398 86.0701 13.9304 91.6663 20.834 91.6663ZM79.1673 83.333H65.9561C66.4165 82.0297 66.6673 80.6272 66.6673 79.1663V33.333H79.1673C81.4686 33.333 83.334 35.1985 83.334 37.4997V79.1663C83.334 81.4676 81.4686 83.333 79.1673 83.333ZM29.1673 58.333H20.834V66.6663H29.1673V58.333ZM33.334 58.333H41.6673V66.6663H33.334V58.333ZM54.1673 58.333H45.834V66.6663H54.1673V58.333ZM70.834 58.333H79.1673V66.6663H70.834V58.333ZM79.1673 41.6663H70.834V49.9997H79.1673V41.6663ZM20.834 41.6663H29.1673V49.9997H20.834V41.6663ZM41.6673 41.6663H33.334V49.9997H41.6673V41.6663ZM45.834 41.6663H54.1673V49.9997H45.834V41.6663ZM29.1673 24.9997H20.834V33.333H29.1673V24.9997ZM33.334 24.9997H41.6673V33.333H33.334V24.9997ZM54.1673 24.9997H45.834V33.333H54.1673V24.9997Z"
            fill="currentColor" />
    </g>
    <defs>
        <filter id="filter0_b_1174_1908" x="-4" y="-4" width="108" height="108"
            filterUnits="userSpaceOnUse" color-interpolation-filters="sRGB">
            <feFlood flood-opacity="0" result="BackgroundImageFix" />
            <feGaussianBlur in="BackgroundImageFix" stdDeviation="2" />
            <feComposite in2="SourceAlpha" operator="in" result="effect1_backgroundBlur_1174_1908" />
            <feBlend mode="normal" in="SourceGraphic" in2="effect1_backgroundBlur_1174_1908"
                result="shape" />
        </filter>
    </defs>
</svg>