<svg width="10" height="10" viewBox="0 0 10 10" fill="none" xmlns="http://www.w3.org/2000/svg">
<path fill-rule="evenodd" clip-rule="evenodd" d="M5 9.5C5 9.22385 5.22385 9 5.5 9H9.5C9.77615 9 10 9.22385 10 9.5C10 9.77615 9.77615 10 9.5 10H5.5C5.22385 10 5 9.77615 5 9.5Z" fill="currentColor"/>
<path fill-rule="evenodd" clip-rule="evenodd" d="M9.3868 3.04997C10.1917 2.2419 10.1575 1.18076 9.5565 0.530914C9.2634 0.214049 8.8463 0.0116485 8.37385 0.00048848C7.89965 -0.0107115 7.40835 0.170633 6.955 0.549923C6.9434 0.559623 6.93225 0.569843 6.9216 0.580553L0.43723 7.0908C0.157215 7.3719 0 7.75255 0 8.14935V8.9961C0 9.54685 0.445985 10 1.00191 10H1.84133C2.24019 10 2.62262 9.84115 2.90409 9.55855L9.3868 3.04997ZM7.60355 1.89647C7.4083 1.70121 7.0917 1.70121 6.89645 1.89647C6.7012 2.09174 6.7012 2.40832 6.89645 2.60358L7.39645 3.10358C7.5917 3.29884 7.9083 3.29884 8.10355 3.10358C8.2988 2.90832 8.2988 2.59174 8.10355 2.39647L7.60355 1.89647Z" fill="currentColor"/>
</svg>
