<svg width="22" height="20" viewBox="0 0 22 20" fill="none" xmlns="http://www.w3.org/2000/svg">
<path d="M10.417 9.99992H3.32184M3.12073 10.93L1.94851 14.4316C1.30649 16.3494 0.985486 17.3083 1.21586 17.8987C1.4159 18.4116 1.84558 18.8003 2.37577 18.9484C2.9863 19.1187 3.90843 18.7037 5.7527 17.8739L17.5762 12.5533C19.3763 11.7432 20.2764 11.3382 20.5545 10.7755C20.7963 10.2867 20.7963 9.71304 20.5545 9.2242C20.2764 8.66164 19.3763 8.25657 17.5762 7.44649L5.7323 2.11679C3.89359 1.28938 2.97424 0.875664 2.36432 1.04538C1.83463 1.19276 1.40501 1.58051 1.20426 2.09236C0.973096 2.68175 1.29067 3.63856 1.92584 5.5522L3.12301 9.1591C3.23209 9.48775 3.28664 9.65214 3.30817 9.82014C3.32728 9.96935 3.32708 10.1203 3.3076 10.2694C3.28563 10.4374 3.23067 10.6016 3.12073 10.93Z" stroke="#1D2125" stroke-width="2" stroke-linecap="round" stroke-linejoin="round"/>
</svg>
