<svg width="24" height="19" viewBox="0 0 24 19" fill="none" xmlns="http://www.w3.org/2000/svg">
<path fill-rule="evenodd" clip-rule="evenodd" d="M0.968806 3.18506C0.333008 4.43288 0.333008 6.06632 0.333008 9.33333C0.333008 12.6004 0.333008 14.2338 0.968806 15.4817C1.52806 16.5793 2.42045 17.4717 3.51807 18.0308C4.76589 18.6667 6.39937 18.6667 9.66634 18.6667H14.333C17.6 18.6667 19.2335 18.6667 20.4813 18.0308C21.5789 17.4717 22.4713 16.5793 23.0305 15.4817C23.6663 14.2338 23.6663 12.6004 23.6663 9.33333C23.6663 6.06632 23.6663 4.43288 23.0305 3.18506C22.4713 2.08745 21.5789 1.19505 20.4813 0.635798C19.2335 6.95388e-08 17.6 0 14.333 0H9.66634C6.39937 0 4.76589 6.95388e-08 3.51807 0.635798C2.42045 1.19505 1.52806 2.08745 0.968806 3.18506ZM15.5691 7.58275C15.8909 7.22225 15.8596 6.66913 15.4991 6.34737C15.1386 6.02548 14.5855 6.05675 14.2637 6.41725L10.7497 10.3529L9.73576 9.21725C9.41386 8.85675 8.86072 8.82548 8.50026 9.14737C8.13978 9.46913 8.10847 10.0223 8.43032 10.3828L10.097 12.2494C10.263 12.4354 10.5004 12.5417 10.7497 12.5417C10.9989 12.5417 11.2363 12.4354 11.4023 12.2494L15.5691 7.58275Z" fill="currentColor"/>
</svg>
