<svg width="75" height="75" viewBox="0 0 75 75" fill="none" xmlns="http://www.w3.org/2000/svg">
<path d="M37.5004 38.8635C48.2307 38.8635 56.9307 30.1636 56.9307 19.4317C56.9307 8.70293 48.2307 0 37.5004 0C26.7687 0 18.0703 8.70293 18.0703 19.4317C18.0703 30.1636 26.7687 38.8635 37.5004 38.8635Z" fill="currentColor"/>
<path d="M62.3843 57.5837C61.5169 52.3873 57.1109 45.2044 53.9539 41.8417C53.1 40.9318 51.6177 41.3103 51.0969 41.6327C47.1359 44.0749 42.4862 45.4997 37.5003 45.4997C32.5146 45.4997 27.8649 44.0749 23.9039 41.6327C23.3832 41.3103 21.9008 40.9318 21.0468 41.8417C17.89 45.2044 13.4841 52.3873 12.6164 57.5837C10.4848 70.3776 24.1524 75.0001 37.5005 75.0001C50.8486 75.0001 64.5161 70.3776 62.3843 57.5837Z" fill="currentColor"/>
</svg>
